<svg width="20" height="20" viewBox="0 0 20 20" fill="none" xmlns="http://www.w3.org/2000/svg">
<g opacity="1">
<rect opacity="0" width="20" height="20" fill="black"/>
<path d="M9.99984 9.99992C10.4601 9.99992 10.8332 9.62682 10.8332 9.16659C10.8332 8.70635 10.4601 8.33325 9.99984 8.33325C9.5396 8.33325 9.1665 8.70635 9.1665 9.16659C9.1665 9.62682 9.5396 9.99992 9.99984 9.99992Z" fill="black"/>
<path d="M13.3333 9.99992C13.7936 9.99992 14.1667 9.62682 14.1667 9.16659C14.1667 8.70635 13.7936 8.33325 13.3333 8.33325C12.8731 8.33325 12.5 8.70635 12.5 9.16659C12.5 9.62682 12.8731 9.99992 13.3333 9.99992Z" fill="black"/>
<path d="M6.66683 9.99992C7.12707 9.99992 7.50016 9.62682 7.50016 9.16659C7.50016 8.70635 7.12707 8.33325 6.66683 8.33325C6.20659 8.33325 5.8335 8.70635 5.8335 9.16659C5.8335 9.62682 6.20659 9.99992 6.66683 9.99992Z" fill="black"/>
<path fill-rule="evenodd" clip-rule="evenodd" d="M4.1665 2.5H15.8332C17.2139 2.5 18.3332 3.61929 18.3332 5V13.3333C18.3332 14.714 17.2139 15.8333 15.8332 15.8333H7.12484C6.964 15.8271 6.80481 15.8677 6.6665 15.95L2.92484 18.2167C2.79621 18.293 2.64941 18.3333 2.49984 18.3333C2.35668 18.3329 2.21605 18.2956 2.0915 18.225C1.82943 18.0777 1.66702 17.8006 1.6665 17.5V5C1.6665 3.61929 2.78579 2.5 4.1665 2.5ZM15.8332 14.1667C16.2934 14.1667 16.6665 13.7936 16.6665 13.3333V5C16.6665 4.53976 16.2934 4.16667 15.8332 4.16667H4.1665C3.70627 4.16667 3.33317 4.53976 3.33317 5V16.025L5.83317 14.525C6.22308 14.2902 6.66969 14.1663 7.12484 14.1667H15.8332Z" fill="black"/>
</g>
</svg>
